Coordinates
version=1
nRows=32
nColumns=12
inDegrees=yes

Units are S.I. units (second, meters, Newtons, ...)
Angles are in degrees

endheader
time	SC_y	SC_z	SC_x	AC_y	AC_z	AC_x	GH_y	GH_z	GH_yy	EL_x	PS_y
       0.0              -56.47          36.26          79.34          57.66         -6.896          13.99          70.97          47.21          118.8           51.2          12.86
    0.0416              -56.47          36.25          79.33          57.66         -6.897          13.99          70.96           47.2          118.8          51.21          12.86
   0.08319              -56.47          36.25          79.32          57.66         -6.898          13.99          70.94           47.2          118.8          51.21          12.87
    0.1248              -56.47          36.24          79.31          57.66         -6.899          13.98          70.93           47.2          118.8          51.22          12.87
    0.1664              -56.47          36.24          79.29          57.66           -6.9          13.98          70.92          47.19          118.7          51.23          12.87
     0.208              -56.47          36.23          79.28          57.67         -6.901          13.98          70.91          47.19          118.7          51.24          12.88
    0.2496              -56.46          36.23          79.26          57.67         -6.903          13.98          70.89          47.19          118.6          51.25          12.88
    0.2912              -56.46          36.22          79.25          57.67         -6.904          13.97          70.88          47.18          118.6          51.26          12.89
    0.3328              -56.46          36.22          79.23          57.67         -6.905          13.97          70.86          47.18          118.5          51.27          12.89
    0.3744              -56.46          36.21          79.21          57.68         -6.907          13.97          70.84          47.17          118.5          51.29           12.9
     0.416              -56.45           36.2          79.19          57.68         -6.909          13.96          70.82          47.17          118.4           51.3           12.9
    0.4575              -56.45          36.19          79.17          57.68          -6.91          13.96           70.8          47.16          118.4          51.31          12.91
    0.4991              -56.45          36.18          79.14          57.68         -6.912          13.96          70.78          47.16          118.3          51.33          12.91
    0.5407              -56.44          36.17          79.12          57.69         -6.914          13.95          70.76          47.15          118.2          51.35          12.92
    0.5823              -56.44          36.16          79.09          57.69         -6.917          13.95          70.73          47.14          118.2          51.37          12.93
    0.6239              -56.43          36.15          79.06           57.7         -6.919          13.94           70.7          47.14          118.1          51.39          12.94
    0.6655              -56.43          36.14          79.03           57.7         -6.922          13.94          70.67          47.13          118.0          51.41          12.95
    0.7071              -56.42          36.13          78.99           57.7         -6.925          13.93          70.64          47.12          117.9          51.43          12.96
    0.7487              -56.42          36.11          78.95          57.71         -6.928          13.93           70.6          47.11          117.8          51.46          12.97
    0.7903              -56.41           36.1          78.91          57.72         -6.931          13.92          70.56           47.1          117.7          51.48          12.98
    0.8319               -56.4          36.08          78.86          57.72         -6.935          13.91          70.52          47.09          117.6          51.52          12.99
    0.8735               -56.4          36.06          78.81          57.73         -6.939           13.9          70.47          47.08          117.4          51.55           13.0
    0.9151              -56.39          36.04          78.76          57.74         -6.944          13.89          70.42          47.06          117.3          51.59          13.02
    0.9567              -56.38          36.02          78.69          57.74         -6.949          13.88          70.36          47.05          117.1          51.63          13.04
    0.9983              -56.37          35.99          78.62          57.75         -6.955          13.87           70.3          47.03          116.9          51.68          13.06
      1.04              -56.36          35.96          78.55          57.76         -6.961          13.86          70.22          47.01          116.7          51.73          13.08
     1.081              -56.34          35.93          78.46          57.77         -6.968          13.84          70.14          46.99          116.5          51.79           13.1
     1.123              -56.33          35.89          78.36          57.79         -6.976          13.83          70.05          46.97          116.2          51.85          13.13
     1.165              -56.31          35.85          78.25           57.8         -6.985          13.81          69.95          46.94          115.9          51.93          13.16
     1.206               -56.3          35.81          78.12          57.82         -6.996          13.79          69.83          46.91          115.6          52.01           13.2
     1.248              -56.27          35.75          77.98          57.84         -7.007          13.76          69.69          46.87          115.2           52.1          13.23
     1.289              -56.25          35.69          77.82          57.86         -7.021          13.73          69.54          46.83          114.8          52.21          13.28
